<?xml version="1.0" encoding="utf-8"?>
<!-- Generator: Adobe Illustrator 19.0.0, SVG Export Plug-In . SVG Version: 6.00 Build 0)  -->
<svg version="1.1" id="layer" xmlns="http://www.w3.org/2000/svg" xmlns:xlink="http://www.w3.org/1999/xlink" x="0px" y="0px"
	 viewBox="-153 -46 652 652" style="enable-background:new -153 -46 652 652;" xml:space="preserve">
<style type="text/css">
	.st0{fill:#E74076;}
</style>
<path class="st0" d="M-38.9,192.3h-5.7c0-0.9,0.1-1.8,0.2-2.7c0.1-0.8,0.4-1.8,0.7-2.8h5.7l0.3-2c0.8-4.6,2.3-8.1,4.6-10.4
	c2.3-2.3,5.5-3.4,9.6-3.4c1.2,0,2.2,0.1,3.1,0.2c0.9,0.2,1.7,0.4,2.4,0.6c-0.3,1.2-0.6,2.2-0.9,3c-0.3,0.8-0.7,1.6-1.1,2.5
	c-0.5-0.2-1-0.3-1.6-0.5c-0.6-0.1-1.2-0.2-1.9-0.2c-1,0-1.8,0.1-2.6,0.4c-0.8,0.3-1.5,0.7-2.1,1.3c-0.6,0.6-1.2,1.5-1.6,2.6
	c-0.5,1.1-0.8,2.4-1.1,4.1c-0.1,0.3-0.2,0.6-0.2,0.9c0,0.3-0.1,0.6-0.2,0.9h8.5c0,1-0.1,1.9-0.2,2.7c-0.1,0.8-0.4,1.7-0.7,2.8h-8.5
	l-5.3,30.1c-0.6,3.1-1.2,5.7-2,7.8c-0.8,2.1-1.8,3.8-3,5.1c-1.2,1.3-2.6,2.3-4.2,2.8c-1.6,0.6-3.4,0.9-5.6,0.9c-1,0-2-0.1-2.9-0.2
	c-0.9-0.2-1.7-0.4-2.4-0.7c0.2-1.1,0.4-2,0.7-2.9c0.3-0.9,0.6-1.7,1.1-2.5c0.5,0.2,1,0.3,1.6,0.4c0.6,0.1,1.2,0.2,1.8,0.2
	c1.1,0,2-0.1,2.9-0.4c0.8-0.3,1.6-0.8,2.2-1.7c0.6-0.8,1.2-2,1.8-3.5c0.5-1.5,1-3.4,1.4-5.8L-38.9,192.3 M15.7,223.1
	c3.4,0,6.3-0.7,8.8-2.2c2.5-1.5,4.5-3.3,6.1-5.6c1.6-2.3,2.8-4.8,3.6-7.5c0.8-2.8,1.2-5.4,1.2-8c0-4.3-1.1-7.7-3.2-10.1
	c-2.2-2.4-5.4-3.6-9.7-3.6c-3.4,0-6.3,0.7-8.7,2.2c-2.5,1.5-4.5,3.4-6.1,5.7c-1.6,2.3-2.8,4.8-3.6,7.6c-0.8,2.8-1.2,5.4-1.2,8
	c0,4.3,1.1,7.7,3.2,10C8.2,221.9,11.4,223.1,15.7,223.1 M16.3,217.6c-2.2,0-3.8-0.7-4.9-2.1c-1.1-1.4-1.7-3.4-1.7-6
	c0-1.8,0.2-3.7,0.7-5.8c0.4-2.1,1.1-4,2.1-5.8c1-1.8,2.2-3.3,3.7-4.5c1.5-1.2,3.4-1.8,5.5-1.8c2.2,0,3.8,0.7,5,2.1
	c1.2,1.4,1.8,3.4,1.8,6c0,1.8-0.2,3.8-0.7,5.9c-0.5,2.1-1.2,4-2.1,5.8c-1,1.8-2.2,3.3-3.8,4.4C20.3,217,18.5,217.6,16.3,217.6
	 M71.3,201.8l-3.7,20.5c0.5,0.1,1,0.2,1.6,0.2c0.6,0,1.2,0.1,1.7,0.1c0.5,0,1.1,0,1.7-0.1c0.6,0,1.2-0.1,1.8-0.2l2.3-12.9
	c0.5-2.8,1.2-5.3,2-7.4c0.8-2.2,1.8-4,2.9-5.4c1.1-1.5,2.2-2.6,3.4-3.3c1.2-0.8,2.4-1.1,3.6-1.1c1.4,0,2.6,0.4,3.4,1.2
	c0.8,0.8,1.3,2.1,1.3,3.9c0,0.5,0,1.1-0.1,1.8c-0.1,0.7-0.2,1.4-0.3,2.1l-3.7,21.2c0.5,0.1,1,0.2,1.6,0.2c0.6,0,1.2,0.1,1.7,0.1
	c0.5,0,1.1,0,1.7-0.1c0.6,0,1.2-0.1,1.8-0.2l3.9-22.4c0.1-0.8,0.3-1.6,0.3-2.4c0.1-0.8,0.1-1.6,0.1-2.3c0-3.1-0.8-5.4-2.3-6.8
	c-1.5-1.5-3.7-2.2-6.4-2.2c-1.5,0-3,0.3-4.3,0.8c-1.4,0.5-2.6,1.2-3.7,2.1c-1.1,0.8-2.1,1.8-2.9,2.8c-0.8,1-1.5,2-1.9,3
	c0.1-0.7,0.3-1.5,0.4-2.3c0.1-0.8,0.2-1.6,0.2-2.5c0-0.8,0-1.4-0.1-1.9c0-0.5-0.1-0.9-0.2-1.3c-0.5-0.1-1-0.2-1.6-0.2
	c-0.6,0-1.1-0.1-1.5-0.1c-0.5,0-1.1,0-1.7,0.1c-0.6,0-1.1,0.1-1.7,0.2c0.1,0.5,0.2,0.9,0.2,1.3c0,0.3,0,0.8,0,1.4
	c0,1.5-0.2,3.2-0.4,5.2C72.2,196.7,71.8,199,71.3,201.8 M163,207.2l4.3-24.2c0.3-1.5,0.5-3.1,0.7-4.8c0.2-1.7,0.3-3,0.3-4.1
	c0-0.8-0.1-1.6-0.2-2.6c-0.5-0.1-1-0.1-1.5-0.2c-0.6,0-1.1,0-1.6,0c-0.5,0-1.1,0-1.8,0.1c-0.7,0-1.3,0.1-1.8,0.2
	c0,0.5,0.1,0.9,0.1,1.2v1.4c0,1.5-0.1,3.2-0.4,5.1c-0.3,1.9-0.7,4.2-1.2,6.9c-0.4,0-0.8-0.1-1.4-0.1c-0.6,0-1.1-0.1-1.6-0.1
	c-3.9,0-7.3,0.7-10.2,2.2c-3,1.5-5.4,3.4-7.4,5.8c-2,2.4-3.5,5.2-4.5,8.3c-1,3.1-1.5,6.3-1.5,9.5c0,3.4,0.8,6.2,2.3,8.2
	c1.6,2,3.9,3,6.9,3c1.6,0,3-0.3,4.4-0.8c1.4-0.6,2.6-1.3,3.7-2.1c1.1-0.9,2.1-1.8,2.9-2.9c0.8-1.1,1.5-2.1,2.1-3.1
	c-0.2,0.8-0.4,1.7-0.5,2.7c-0.1,1-0.2,1.8-0.2,2.3c0,0.8,0,1.4,0.1,1.8c0.1,0.4,0.2,0.8,0.2,1.2c0.5,0.1,1,0.2,1.5,0.2
	c0.6,0,1.1,0.1,1.6,0.1c0.5,0,1,0,1.6-0.1c0.6,0,1.1-0.1,1.6-0.2c-0.1-0.5-0.1-0.9-0.1-1.3v-1.4c0-1.5,0.1-3.2,0.4-5.2
	C162.1,212.3,162.5,210,163,207.2 M157.7,199.5c-0.5,2.5-1.1,4.8-1.9,7c-0.8,2.2-1.8,4.1-2.9,5.7c-1.1,1.6-2.3,2.9-3.7,3.8
	c-1.3,0.9-2.7,1.4-4.1,1.4c-1.6,0-2.7-0.6-3.5-1.8c-0.8-1.2-1.2-2.9-1.2-5.1c0-2.3,0.3-4.6,1-6.9c0.7-2.2,1.7-4.2,3-6
	c1.3-1.8,2.9-3.2,4.7-4.2s3.9-1.6,6.2-1.6c0.7,0,1.4,0,2,0.1c0.6,0,1.2,0.1,1.7,0.3L157.7,199.5z M227.4,207.2l3.4-19.7
	c-1.3-0.5-2.8-0.8-4.4-1.1c-1.7-0.3-3.3-0.4-5-0.4c-3.9,0-7.3,0.7-10.3,2.2c-2.9,1.5-5.4,3.4-7.4,5.8c-2,2.4-3.5,5.2-4.5,8.3
	c-1,3.1-1.5,6.3-1.5,9.5c0,3.4,0.8,6.2,2.3,8.2c1.5,2,3.8,3,6.9,3c1.6,0,3-0.3,4.4-0.8c1.4-0.6,2.6-1.3,3.7-2.1
	c1.1-0.8,2-1.8,2.9-2.8c0.8-1,1.5-2.1,2-3.1c-0.1,0.7-0.3,1.5-0.4,2.3c-0.1,0.9-0.2,1.6-0.2,2.1c0,0.8,0,1.4,0.1,2
	c0,0.5,0.1,1,0.2,1.6c0.5,0.1,1,0.2,1.6,0.2c0.5,0,1.1,0.1,1.5,0.1c0.5,0,1.1,0,1.7-0.1c0.6,0,1.1-0.1,1.7-0.2
	c-0.1-0.5-0.2-0.9-0.2-1.3c0-0.3,0-0.8,0-1.4c0-1.5,0.2-3.2,0.4-5.2C226.5,212.3,226.9,210,227.4,207.2 M222.1,199.5
	c-0.5,2.5-1.1,4.8-1.9,7c-0.8,2.2-1.8,4.1-2.9,5.7c-1.1,1.6-2.3,2.9-3.7,3.8c-1.3,0.9-2.7,1.4-4.1,1.4c-1.6,0-2.7-0.6-3.5-1.8
	c-0.8-1.2-1.2-2.9-1.2-5.1c0-2.3,0.3-4.6,1-6.9c0.7-2.2,1.7-4.2,3-6c1.3-1.8,2.9-3.2,4.7-4.2s3.9-1.6,6.2-1.6c0.7,0,1.4,0,2,0.1
	c0.6,0,1.2,0.1,1.7,0.3L222.1,199.5z M268.5,192.3l-3,16.9c-0.2,1.1-0.4,2.1-0.5,3.1c-0.2,1-0.2,1.9-0.2,2.8c0,1.6,0.2,2.9,0.7,3.9
	c0.5,1,1.2,1.8,2,2.3c0.9,0.6,1.9,1,3.1,1.2c1.2,0.2,2.6,0.3,4,0.3c1.1,0,2.1-0.1,3.1-0.2c1-0.2,1.7-0.3,2.3-0.5
	c0-0.4,0.1-0.7,0.1-1.1v-1c0-0.6,0-1.2-0.1-1.8c-0.1-0.5-0.2-1.1-0.3-1.5c-0.6,0.2-1.3,0.3-1.9,0.4c-0.6,0.1-1.4,0.2-2.1,0.2
	c-1.2,0-2.1-0.3-2.9-0.8c-0.7-0.5-1.1-1.5-1.1-2.9c0-0.9,0.1-1.9,0.3-3.1c0.2-1.1,0.4-2.2,0.6-3.3l2.7-15h8.8
	c0.3-0.9,0.6-1.8,0.7-2.7c0.1-0.8,0.2-1.8,0.2-2.8h-8.9l0.4-2.1c0.4-2.1,0.6-3.9,0.6-5.3c0-0.5,0-0.9,0-1.3c0-0.4-0.1-0.8-0.1-1.2
	c-0.9,0-2,0.1-3.3,0.3c-1.3,0.2-2.4,0.6-3.3,1v1.1c0,1.3-0.1,2.6-0.3,3.9c-0.2,1.2-0.4,2.5-0.6,3.7h-5.5c-0.4,1-0.6,1.9-0.8,2.8
	c-0.1,0.8-0.2,1.7-0.2,2.7H268.5 M319.8,192.3l-5.2,29.9c0.5,0.1,1,0.2,1.6,0.2c0.5,0,1.1,0,1.6,0c0.5,0,1.1,0,1.8,0
	c0.7,0,1.3-0.1,1.8-0.2l6.2-35.4h-11c-0.4,1-0.6,1.9-0.7,2.8c-0.1,0.9-0.2,1.8-0.2,2.7H319.8 M319.7,179.6c0.6,0.1,1.2,0.2,1.9,0.2
	c0.7,0,1.4,0,1.9,0c0.5,0,1.2,0,1.9,0c0.7,0,1.4-0.1,2.1-0.2c0.4-1.2,0.7-2.4,0.9-3.6c0.2-1.2,0.4-2.5,0.4-3.8
	c-0.6-0.1-1.3-0.2-2-0.2c-0.7,0-1.3-0.1-1.9-0.1c-0.6,0-1.2,0-1.9,0.1c-0.7,0-1.4,0.1-2.1,0.2c-0.4,1.2-0.7,2.5-0.9,3.7
	C319.8,177,319.7,178.3,319.7,179.6 M372.5,223.1c3.4,0,6.3-0.7,8.8-2.2c2.5-1.5,4.5-3.3,6.1-5.6c1.6-2.3,2.8-4.8,3.6-7.5
	c0.8-2.8,1.2-5.4,1.2-8c0-4.3-1.1-7.7-3.2-10.1c-2.2-2.4-5.4-3.6-9.7-3.6c-3.4,0-6.3,0.7-8.7,2.2c-2.5,1.5-4.5,3.4-6.1,5.7
	c-1.6,2.3-2.8,4.8-3.6,7.6c-0.8,2.8-1.2,5.4-1.2,8c0,4.3,1.1,7.7,3.2,10C365,221.9,368.2,223.1,372.5,223.1 M373.2,217.6
	c-2.2,0-3.8-0.7-4.9-2.1c-1.1-1.4-1.7-3.4-1.7-6c0-1.8,0.2-3.7,0.7-5.8c0.4-2.1,1.1-4,2.1-5.8c1-1.8,2.2-3.3,3.7-4.5
	c1.5-1.2,3.4-1.8,5.5-1.8c2.2,0,3.8,0.7,5,2.1c1.2,1.4,1.8,3.4,1.8,6c0,1.8-0.2,3.8-0.7,5.9c-0.5,2.1-1.2,4-2.1,5.8
	c-1,1.8-2.2,3.3-3.8,4.4C377.2,217,375.3,217.6,373.2,217.6 M428.1,201.8l-3.7,20.5c0.5,0.1,1,0.2,1.6,0.2c0.6,0,1.2,0.1,1.7,0.1
	c0.5,0,1.1,0,1.7-0.1c0.6,0,1.2-0.1,1.8-0.2l2.3-12.9c0.5-2.8,1.2-5.3,2-7.4c0.9-2.2,1.8-4,2.9-5.4c1.1-1.5,2.2-2.6,3.4-3.3
	c1.2-0.8,2.4-1.1,3.7-1.1c1.4,0,2.6,0.4,3.4,1.2c0.9,0.8,1.3,2.1,1.3,3.9c0,0.5,0,1.1-0.1,1.8c-0.1,0.7-0.2,1.4-0.3,2.1l-3.7,21.2
	c0.5,0.1,1,0.2,1.6,0.2c0.6,0,1.2,0.1,1.7,0.1c0.5,0,1.1,0,1.7-0.1c0.6,0,1.2-0.1,1.8-0.2l3.9-22.4c0.1-0.8,0.3-1.6,0.3-2.4
	c0.1-0.8,0.1-1.6,0.1-2.3c0-3.1-0.8-5.4-2.3-6.8c-1.5-1.5-3.7-2.2-6.4-2.2c-1.5,0-3,0.3-4.3,0.8c-1.4,0.5-2.6,1.2-3.7,2.1
	c-1.1,0.8-2.1,1.8-2.9,2.8c-0.8,1-1.5,2-1.9,3c0.1-0.7,0.3-1.5,0.4-2.3c0.1-0.8,0.2-1.6,0.2-2.5c0-0.8,0-1.4-0.1-1.9
	c0-0.5-0.1-0.9-0.2-1.3c-0.5-0.1-1-0.2-1.5-0.2c-0.6,0-1.1-0.1-1.6-0.1c-0.5,0-1.1,0-1.7,0.1c-0.6,0-1.1,0.1-1.7,0.2
	c0.1,0.5,0.2,0.9,0.2,1.3c0,0.3,0,0.8,0,1.4c0,1.5-0.2,3.2-0.4,5.2C429,196.7,428.6,199,428.1,201.8 M-58.7,339
	c0-3.9-0.5-7.4-1.5-10.4c-1-3-2.3-5.6-4-7.8c-1.7-2.2-3.6-4-5.8-5.4c-2.2-1.5-4.4-2.6-6.7-3.6c3.2-2.1,5.9-5.1,8-9
	c2.1-3.9,3.2-8.2,3.2-12.9c0-5.8-1.1-10.5-3.3-14.3c-2.2-3.8-5.1-6.8-8.9-9.1c-3.7-2.3-8.1-3.9-13.1-4.8c-5-1-10.4-1.4-16.1-1.4
	c-6.1,0-11.4,0.2-15.9,0.6c-4.5,0.4-8.7,0.9-12.6,1.5v108.2c5,0.6,9.7,1.1,14.1,1.5c4.3,0.4,9.2,0.6,14.7,0.6
	c6.9,0,13.2-0.5,19.1-1.5c5.9-1,10.9-2.8,15.1-5.3c4.2-2.5,7.6-6,10-10.3C-59.9,351.2-58.7,345.7-58.7,339 M-109.1,281.2
	c0.6-0.1,1.3-0.2,2.2-0.2h2.2c1.5,0,3.1,0.2,4.7,0.5c1.6,0.3,3.1,0.9,4.4,1.7c1.3,0.8,2.4,1.9,3.3,3.3c0.9,1.4,1.3,3.2,1.3,5.3
	c0,4.3-1.2,7.4-3.6,9.2c-2.4,1.8-5.8,2.6-10.1,2.6h-4.2V281.2z M-102.9,325.1c5,0,9.2,0.9,12.3,2.8c3.2,1.9,4.8,5.2,4.8,10.1
	c0,2.5-0.5,4.6-1.4,6.3c-1,1.7-2.2,3-3.9,3.9c-1.6,1-3.4,1.6-5.4,2c-2,0.4-3.9,0.6-5.8,0.6c-1.7,0-3.1,0-4.2-0.1
	c-1.1,0-1.9-0.1-2.6-0.2v-25.4H-102.9z M-41.7,316.8c0,8.1,0.9,15.5,2.8,22.3c1.9,6.8,4.7,12.7,8.6,17.7c3.9,5,8.8,8.9,14.8,11.7
	c6,2.8,13.1,4.2,21.4,4.2c8.3,0,15.4-1.4,21.3-4.2c5.9-2.8,10.9-6.7,14.8-11.7c3.9-5,6.8-10.9,8.6-17.7c1.9-6.8,2.8-14.3,2.8-22.3
	c0-8.1-0.9-15.6-2.8-22.5c-1.9-6.9-4.7-12.9-8.6-17.9c-3.9-5-8.8-9-14.8-11.9c-6-2.9-13.1-4.3-21.3-4.3c-8.3,0-15.4,1.4-21.4,4.3
	c-6,2.9-11,6.8-14.8,11.9c-3.9,5-6.8,11-8.6,17.9C-40.8,301.2-41.7,308.7-41.7,316.8 M25.3,316.8c0,21.8-6.5,32.7-19.4,32.7
	c-6.7,0-11.6-2.7-14.8-8.1c-3.2-5.4-4.8-13.6-4.8-24.6c0-22,6.6-33,19.7-33C18.9,283.8,25.3,294.8,25.3,316.8 M90.1,285.6v84.8
	c5.2,0.9,9.7,1.4,13.5,1.4c3.5,0,8-0.5,13.3-1.4v-84.8h25.3c0.8-4.6,1.2-8.6,1.2-12c0-1.7-0.1-3.5-0.3-5.4c-0.2-1.9-0.5-4-0.9-6.2
	H64.8c-0.9,4.4-1.4,8.3-1.4,11.7c0,3.6,0.5,7.6,1.4,12H90.1 M163.1,262.3v108.1c4.5,0.9,8.6,1.4,12.3,1.4c3.6,0,7.7-0.5,12.1-1.4
	v-59l35.3,59c0.9,0.2,2.4,0.5,4.4,0.8c2,0.4,4.3,0.5,6.8,0.5c2.2,0,4.3-0.2,6.2-0.5c1.9-0.3,3.4-0.6,4.4-0.9l0.2-108.1
	c-2.1-0.4-4.1-0.7-6.1-0.9c-1.9-0.2-3.7-0.3-5.4-0.3c-1.7,0-3.6,0.1-5.8,0.3c-2.1,0.2-4.5,0.5-7.1,0.9v59.3l-35.1-59.3
	c-1.4-0.3-3.1-0.6-5.1-0.8c-2-0.2-3.9-0.4-5.7-0.4c-1.7,0-3.5,0.1-5.3,0.3C167.3,261.6,165.3,261.9,163.1,262.3 M291.4,370.5
	l5.6-20.7c2.6,0.7,5.1,1.2,7.6,1.6c2.4,0.4,4.8,0.5,7.1,0.5c2.5,0,5.1-0.2,7.6-0.6c2.6-0.4,5.3-1,8.1-1.8l5.8,21
	c2.3,0.4,4.5,0.7,6.5,0.9c2,0.2,4,0.3,6.1,0.3c4.3,0,9.4-0.5,15.1-1.4l-33.5-108.2c-2.9-0.3-5.5-0.6-7.8-0.8
	c-2.3-0.2-4.4-0.3-6.3-0.3c-2.3,0-4.6,0.1-6.9,0.3c-2.3,0.2-4.7,0.5-7.3,0.8l-33.9,108.1c2.9,0.5,5.6,0.9,7.9,1.1
	c2.4,0.3,4.5,0.4,6.3,0.4c1.8,0,3.7-0.1,5.6-0.3C287,371.2,289.1,370.9,291.4,370.5 M322.3,329.6c-1.8,0.5-3.6,0.9-5.2,1.1
	c-1.7,0.3-3.4,0.4-5.1,0.4c-1.6,0-3.2-0.2-4.7-0.5c-1.5-0.3-3.1-0.7-4.8-1.2l10.1-38.9L322.3,329.6z M382.1,262.3v108.1
	c5.2,0.9,9.7,1.4,13.5,1.4c3.4,0,7.8-0.5,13.2-1.4v-86.6c0.2-0.1,0.7-0.2,1.4-0.3c0.7-0.1,1.6-0.2,2.6-0.2c4.1,0,7.6,1.2,10.4,3.5
	c2.8,2.3,4.2,6,4.2,11.1c0,2.6-0.4,5.1-1.3,7.6c-0.9,2.4-1.9,4.6-3.2,6.6c-1.3,2-2.6,3.7-4.1,5.1c-1.5,1.4-2.8,2.4-4,3l-1.4,0.8
	l21.5,49.5c2,0.4,4.4,0.7,7,0.9c2.7,0.2,5,0.3,7,0.3c2.3,0,4.9-0.1,7.8-0.3c2.9-0.2,5.5-0.5,7.9-0.9l-23.6-46.6
	c1.6-1.2,3.3-2.7,4.9-4.4c1.7-1.7,3.2-3.7,4.5-6.1c1.4-2.3,2.5-5,3.3-7.9c0.9-3,1.3-6.3,1.3-10.1c0-7-1.4-12.7-4.1-17.3
	c-2.7-4.5-6.3-8.1-10.6-10.7c-4.3-2.6-9.3-4.5-14.8-5.5c-5.5-1.1-11.1-1.6-16.7-1.6c-4.6,0-9.1,0.2-13.2,0.7
	C391.6,261.3,387,261.8,382.1,262.3"/>
</svg>
