<svg id="Layer_1" data-name="Layer 1" xmlns="http://www.w3.org/2000/svg" viewBox="0 0 659.41 314.39"><defs><style>.cls-1{fill:#f15e1c;}.cls-2{fill:#fcb53c;}.cls-3{font-size:35.58px;fill:#4f4f4f;font-family:CeraRoundPro-Medium, Cera Round Pro;font-weight:500;letter-spacing:0.84em;}.cls-4{letter-spacing:0.79em;}</style></defs><path class="cls-1" d="M360.73,64.9H332.25c-7.55,0-13.06,5.44-13.06,12.95V179.91c0,7.48,5.51,12.92,13.06,12.92h28.48c41.54,0,70.56-26.36,70.56-64.16C431.29,90.53,402.93,64.9,360.73,64.9Zm44.44,63.77c0,25-17.52,41.08-44.62,41.08h-16V88.19h16C388.07,88.19,405.17,103.7,405.17,128.67Z"/><path class="cls-2" d="M281.61,129l-.18-.24a.29.29,0,0,1,.18-.27c11-6.08,17.55-17.63,17.55-30.93,0-19.56-16.47-32.67-41-32.67-25.13,0-41.39,12.81-41.39,32.67,0,12.1,6.59,22.85,18,29.53a.53.53,0,0,1,.27.45.43.43,0,0,1-.27.39c-11.11,5-23.87,12.93-23.87,29.94,0,21.09,19,35.25,47.23,35.25,28,0,46.87-14.16,46.87-35.25C305,141.08,293.44,134.4,281.61,129Zm-47,28.51c1.59-7.81,9.76-14.94,12.46-17.28.54-.48.93-.8,1.08-1,5.87-6.32,6.35-14.2,1.25-20.58l-.62-.78c-2.46-2.87-9-10.54-9.44-19.7a11,11,0,0,1,3-8.39c3.29-3.44,9-5.42,15.75-5.42,6.29,0,11.77,1.89,15,5.15a11.59,11.59,0,0,1,3.39,8.69c-.12,8.56-6.77,15.24-10.75,19.22a30.61,30.61,0,0,0-2.31,2.43,13.86,13.86,0,0,0-2.93,11.32,14.9,14.9,0,0,0,7.66,10.18l.51.3c3.5,2,10.81,6.11,12.55,15.78a10.39,10.39,0,0,1-2.31,8.84c-3.8,4.55-11.38,7.16-20.81,7.16-9.61,0-17.61-2.79-21.38-7.4A9.82,9.82,0,0,1,234.65,157.52Z"/><text class="cls-3" transform="translate(86.9 246.02)">NODE EIGH<tspan class="cls-4" x="458.55" y="0">T</tspan></text><path class="cls-1" d="M506.33,64.9C470,64.9,441.41,93.05,441.41,129c0,36.42,29.11,63.85,67.68,63.85a69.81,69.81,0,0,0,41.75-13.18c5.15-3.69,7.12-7,7.12-11.94,0-7-5.36-12.22-12.51-12.22a14.1,14.1,0,0,0-7.64,2.73,47,47,0,0,1-28,9c-20.07,0-34.26-10.6-38.27-28.43h76.9c10.18,0,16.53-6,16.53-15.64V122C565,88.91,540.33,64.9,506.33,64.9Zm-.74,24.7c17,0,28.84,10.45,30,26.21H472.16C476.57,99.81,489.5,89.6,505.59,89.6Z"/><path class="cls-1" d="M196.35,113.89v64.28c0,8.36-6.11,14.66-14.23,14.66-8.38,0-14.46-6.15-14.46-14.66V117.3c0-15.67-9.91-26.22-24.68-26.22-15,0-25.9,11-25.9,26.22v60.87a14.87,14.87,0,0,1-4.14,10.66,14.18,14.18,0,0,1-10.48,4c-7.75-.19-14.07-7-14.07-15.16V114.29c0-17.67,7.51-31.6,21.74-40.3a66.84,66.84,0,0,1,32.25-9.09C177.42,64.9,196.35,90.13,196.35,113.89Z"/></svg>